<?xml version="1.0" standalone="no"?>
<!DOCTYPE svg PUBLIC "-//W3C//DTD SVG 20010904//EN"
 "http://www.w3.org/TR/2001/REC-SVG-20010904/DTD/svg10.dtd">
<svg version="1.0" xmlns="http://www.w3.org/2000/svg"
 width="500.000000pt" height="500.000000pt" viewBox="0 0 500.000000 500.000000"
 preserveAspectRatio="xMidYMid meet">
<metadata>
Created by potrace 1.11, written by Peter Selinger 2001-2013
</metadata>
<g transform="translate(0.000000,500.000000) scale(0.100000,-0.100000)"
fill="#000000" stroke="none">
<path d="M3699 4534 c-94 -29 -183 -138 -220 -269 -18 -67 -14 -65 -109 -40
-44 12 -87 16 -137 13 -133 -9 -225 -76 -286 -207 -41 -88 -44 -191 -8 -264
96 -196 440 -337 972 -401 l47 -5 25 52 c35 75 92 230 121 331 49 169 61 244
61 391 -1 123 -3 147 -24 199 -41 104 -127 176 -240 202 -71 17 -143 17 -202
-2z m189 -78 c96 -26 149 -77 179 -173 22 -72 19 -236 -7 -363 -21 -105 -89
-322 -131 -420 l-22 -52 -56 7 c-105 12 -349 65 -448 96 -54 17 -134 49 -178
70 -162 80 -226 147 -233 247 -7 106 63 233 152 273 76 34 219 18 327 -37 27
-13 53 -24 58 -24 6 0 10 24 10 54 -2 98 43 217 103 272 69 65 137 79 246 50z"/>
<path d="M3132 3326 c-89 -49 -183 -127 -379 -319 l-171 -169 -131 12 c-78 8
-211 10 -333 7 -177 -4 -222 -9 -348 -36 -80 -17 -153 -31 -162 -31 -9 0 -75
48 -146 108 -258 215 -458 340 -560 350 -44 4 -52 1 -85 -27 -73 -65 -104
-220 -127 -636 l-11 -200 -38 -45 c-61 -72 -129 -179 -171 -266 -39 -81 -90
-238 -90 -276 0 -17 -5 -19 -28 -14 -76 18 -98 18 -111 2 -24 -29 0 -59 63
-79 l56 -18 0 -68 0 -69 -47 -7 c-64 -9 -83 -21 -83 -49 0 -40 21 -49 86 -37
32 6 59 11 60 11 1 0 5 -19 9 -42 12 -73 72 -228 121 -313 218 -379 556 -581
1104 -657 148 -20 738 -17 903 5 376 51 675 151 895 299 262 177 452 477 506
799 l6 36 41 -7 c54 -10 78 -3 85 26 9 34 -10 51 -72 65 l-54 12 0 62 0 63 60
22 c59 22 76 42 64 73 -9 25 -35 28 -91 14 l-51 -13 -17 60 c-42 152 -152 338
-282 475 l-80 83 -22 158 c-49 349 -107 554 -177 627 -36 38 -46 43 -85 43
-31 0 -63 -11 -107 -34z m138 -78 c51 -82 110 -332 146 -613 l18 -140 89 -93
c134 -142 232 -303 273 -450 l16 -59 -26 -26 c-14 -14 -26 -30 -26 -36 0 -16
30 -41 51 -41 16 0 19 -7 19 -40 0 -36 -2 -40 -25 -40 -37 0 -55 -42 -30 -70
10 -11 26 -20 37 -20 10 0 18 -2 18 -4 0 -27 -34 -168 -55 -226 -173 -480
-574 -743 -1280 -836 -168 -23 -739 -26 -885 -6 -222 32 -460 102 -598 177
-239 130 -441 377 -521 635 -33 109 -35 127 -13 133 11 2 25 14 31 26 9 17 8
24 -10 42 -11 11 -27 18 -35 15 -11 -4 -14 5 -14 39 0 40 2 44 28 47 40 4 43
45 6 75 l-29 23 23 87 c37 148 118 299 241 452 l51 64 0 92 c0 128 28 465 46
549 8 38 23 88 34 112 15 36 24 44 45 44 62 0 279 -142 504 -329 57 -47 120
-99 141 -114 l37 -29 139 30 c77 17 175 36 219 43 103 16 350 16 533 -1 l143
-13 182 180 c100 99 214 205 254 237 72 57 168 115 191 116 7 0 21 -15 32 -32z"/>
<path d="M1542 2251 c-60 -21 -123 -76 -155 -136 -16 -31 -22 -58 -22 -115 0
-65 4 -82 30 -129 49 -90 134 -139 240 -140 180 -2 311 170 260 344 -22 79
-99 156 -175 179 -69 21 -112 20 -178 -3z m88 -56 c40 -21 60 -53 60 -98 0
-78 -72 -131 -146 -107 -42 14 -74 60 -74 108 0 44 14 69 53 92 38 24 68 25
107 5z m-90 -231 c11 -12 10 -18 -3 -32 -16 -15 -18 -15 -34 0 -13 14 -14 20
-3 32 7 9 16 16 20 16 4 0 13 -7 20 -16z"/>
<path d="M2666 2250 c-183 -72 -234 -303 -96 -440 110 -111 289 -106 393 10
53 58 70 103 70 180 1 188 -191 319 -367 250z m204 -55 c64 -33 78 -114 30
-168 -35 -41 -78 -52 -124 -33 -45 19 -66 52 -66 102 0 87 83 139 160 99z m30
-245 c0 -23 -13 -32 -34 -24 -19 7 -21 25 -5 41 16 16 39 5 39 -17z"/>
<path d="M1485 1373 c-52 -51 52 -245 172 -321 107 -68 266 -81 368 -32 58 28
126 92 152 145 l19 37 29 -42 c68 -98 178 -159 303 -167 139 -10 241 39 315
149 35 54 77 160 77 197 0 31 -29 52 -64 49 -29 -3 -33 -8 -58 -80 -54 -158
-134 -218 -271 -204 -125 13 -231 106 -261 231 -11 45 -24 55 -71 55 -49 0
-59 -9 -75 -70 -41 -155 -136 -230 -270 -216 -73 7 -121 28 -172 74 -37 33
-98 138 -98 169 0 38 -65 56 -95 26z"/>
<path d="M3906 3229 c-62 -15 -133 -59 -160 -98 -40 -59 -49 -104 -44 -215 4
-84 12 -121 46 -225 46 -135 186 -420 211 -428 9 -4 23 -12 32 -20 14 -11 33
-8 138 22 237 68 398 150 489 250 42 46 53 66 72 136 25 94 22 137 -14 214
-46 99 -111 151 -206 162 -49 6 -135 -10 -181 -33 -25 -13 -26 -12 -48 41 -63
151 -197 229 -335 194z m153 -88 c20 -11 43 -26 50 -34 10 -13 6 -13 -31 0
-91 32 -228 -7 -275 -77 -30 -43 -31 -12 -2 40 45 79 172 114 258 71z m480
-220 c35 -26 36 -40 0 -21 -36 20 -154 7 -223 -24 -70 -31 -66 -31 -66 -6 0
21 19 34 95 62 67 25 150 20 194 -11z"/>
</g>
</svg>
